<?xml version="1.0" standalone="no"?>
<!DOCTYPE svg PUBLIC "-//W3C//DTD SVG 20010904//EN"
 "http://www.w3.org/TR/2001/REC-SVG-20010904/DTD/svg10.dtd">
<svg version="1.0" xmlns="http://www.w3.org/2000/svg"
 width="24pt" height="24pt" viewBox="0 0 1200.000000 1200.000000"
 preserveAspectRatio="xMidYMid meet">
<metadata>
Created by potrace 1.15, written by Peter Selinger 2001-2017
</metadata>
<g transform="translate(0.000000,1200.000000) scale(0.100000,-0.100000)"
fill="#000000" stroke="none">
<path d="M8379 8731 c-1317 -1749 -2397 -3180 -2400 -3180 -4 -1 -4720 6295
-4751 6343 -4 6 -9 8 -11 6 -2 -3 -49 -520 -104 -1150 l-99 -1145 1953 -2733
1953 -2732 -354 -470 -355 -470 -44 62 c-33 46 -2608 3764 -3211 4635 -39 57
-74 103 -78 103 -5 0 -8 -15 -8 -32 -1 -18 -52 -611 -113 -1318 l-113 -1285
62 -95 c262 -403 3406 -5166 3412 -5168 4 -1 422 574 927 1277 506 704 923
1280 926 1280 4 1 418 -575 920 -1279 503 -703 918 -1278 923 -1277 8 3 1650
2469 3132 4704 l405 611 -111 1284 c-61 705 -114 1296 -118 1313 -7 27 -122
-135 -1682 -2370 -920 -1320 -1681 -2410 -1691 -2422 -17 -23 -20 -19 -365
443 -192 256 -348 469 -347 473 1 5 889 1240 1973 2746 1083 1505 1970 2745
1970 2754 2 46 -195 2271 -201 2271 -3 0 -1083 -1431 -2400 -3179z"/>
<path d="M11465 3565 c-21 -33 -355 -552 -743 -1154 l-703 -1094 35 -581 c20
-320 36 -596 36 -613 l0 -33 860 0 860 0 0 31 c0 38 -299 3480 -304 3494 -1 6
-20 -17 -41 -50z"/>
<path d="M486 3539 c-6 -29 -296 -3383 -296 -3421 l0 -28 858 0 858 0 33 543
c18 298 33 558 34 577 2 31 -91 181 -732 1185 -403 633 -737 1154 -742 1159
-4 5 -10 -2 -13 -15z"/>
</g>
</svg>
